<mxfile host="app.diagrams.net" modified="2020-08-25T15:57:48.637Z" agent="5.0 (Windows)" etag="V7cW6xqxeKfcsAJ5q16p" version="13.6.4" type="github">
  <diagram id="C5RBs43oDa-KdzZeNtuy" name="Page-1">
    <mxGraphModel dx="1841" dy="1711" grid="1" gridSize="10" guides="1" tooltips="1" connect="1" arrows="1" fold="1" page="1" pageScale="1" pageWidth="827" pageHeight="1169" math="0" shadow="0">
      <root>
        <mxCell id="WIyWlLk6GJQsqaUBKTNV-0" />
        <mxCell id="WIyWlLk6GJQsqaUBKTNV-1" parent="WIyWlLk6GJQsqaUBKTNV-0" />
        <mxCell id="_5Sri1fP840JNtNylSVJ-5" value="" style="edgeStyle=orthogonalEdgeStyle;rounded=0;orthogonalLoop=1;jettySize=auto;html=1;" edge="1" parent="WIyWlLk6GJQsqaUBKTNV-1" source="_5Sri1fP840JNtNylSVJ-0" target="_5Sri1fP840JNtNylSVJ-4">
          <mxGeometry relative="1" as="geometry" />
        </mxCell>
        <mxCell id="_5Sri1fP840JNtNylSVJ-0" value="&lt;div&gt;Pobranie danych&lt;/div&gt;&lt;div&gt;&lt;br&gt;&lt;/div&gt;" style="rounded=0;whiteSpace=wrap;html=1;" vertex="1" parent="WIyWlLk6GJQsqaUBKTNV-1">
          <mxGeometry x="-610" y="-1110" width="120" height="60" as="geometry" />
        </mxCell>
        <mxCell id="_5Sri1fP840JNtNylSVJ-3" value="" style="edgeStyle=orthogonalEdgeStyle;rounded=0;orthogonalLoop=1;jettySize=auto;html=1;" edge="1" parent="WIyWlLk6GJQsqaUBKTNV-1" source="_5Sri1fP840JNtNylSVJ-2" target="_5Sri1fP840JNtNylSVJ-0">
          <mxGeometry relative="1" as="geometry" />
        </mxCell>
        <mxCell id="_5Sri1fP840JNtNylSVJ-2" value="" style="rounded=0;whiteSpace=wrap;html=1;" vertex="1" parent="WIyWlLk6GJQsqaUBKTNV-1">
          <mxGeometry x="-320" y="-1110" width="120" height="60" as="geometry" />
        </mxCell>
        <mxCell id="_5Sri1fP840JNtNylSVJ-7" value="" style="edgeStyle=orthogonalEdgeStyle;rounded=0;orthogonalLoop=1;jettySize=auto;html=1;" edge="1" parent="WIyWlLk6GJQsqaUBKTNV-1" source="_5Sri1fP840JNtNylSVJ-4" target="_5Sri1fP840JNtNylSVJ-6">
          <mxGeometry relative="1" as="geometry" />
        </mxCell>
        <mxCell id="_5Sri1fP840JNtNylSVJ-4" value="&lt;div&gt;Projekcja&lt;/div&gt;&lt;div&gt;ψ=0,1,…,ψ-1&lt;br&gt;&lt;/div&gt;" style="rounded=0;whiteSpace=wrap;html=1;" vertex="1" parent="WIyWlLk6GJQsqaUBKTNV-1">
          <mxGeometry x="-610" y="-1010" width="120" height="60" as="geometry" />
        </mxCell>
        <mxCell id="_5Sri1fP840JNtNylSVJ-9" value="" style="edgeStyle=orthogonalEdgeStyle;rounded=0;orthogonalLoop=1;jettySize=auto;html=1;" edge="1" parent="WIyWlLk6GJQsqaUBKTNV-1" source="_5Sri1fP840JNtNylSVJ-6" target="_5Sri1fP840JNtNylSVJ-8">
          <mxGeometry relative="1" as="geometry" />
        </mxCell>
        <mxCell id="_5Sri1fP840JNtNylSVJ-6" value="Przeliczenia projekcji na punkty" style="rounded=0;whiteSpace=wrap;html=1;" vertex="1" parent="WIyWlLk6GJQsqaUBKTNV-1">
          <mxGeometry x="-610" y="-910" width="120" height="60" as="geometry" />
        </mxCell>
        <mxCell id="_5Sri1fP840JNtNylSVJ-11" value="" style="edgeStyle=orthogonalEdgeStyle;rounded=0;orthogonalLoop=1;jettySize=auto;html=1;" edge="1" parent="WIyWlLk6GJQsqaUBKTNV-1" source="_5Sri1fP840JNtNylSVJ-8" target="_5Sri1fP840JNtNylSVJ-10">
          <mxGeometry relative="1" as="geometry" />
        </mxCell>
        <mxCell id="_5Sri1fP840JNtNylSVJ-8" value="&lt;div&gt;Transformata Fouriera&lt;/div&gt;&lt;div&gt;&lt;br&gt;&lt;/div&gt;" style="rounded=0;whiteSpace=wrap;html=1;" vertex="1" parent="WIyWlLk6GJQsqaUBKTNV-1">
          <mxGeometry x="-610" y="-810" width="120" height="60" as="geometry" />
        </mxCell>
        <mxCell id="_5Sri1fP840JNtNylSVJ-10" value="Dla każdego piksela w wierszu obliczana jest połowa wysokości obrazu w celu przyśpieszenia obliczeń" style="rounded=0;whiteSpace=wrap;html=1;" vertex="1" parent="WIyWlLk6GJQsqaUBKTNV-1">
          <mxGeometry x="-440" y="-830" width="120" height="100" as="geometry" />
        </mxCell>
      </root>
    </mxGraphModel>
  </diagram>
</mxfile>
